<svg xmlns="http://www.w3.org/2000/svg" width="72.48" height="46" viewBox="0 0 72.48 46"><g transform="translate(443.99 489.724)"><g transform="translate(-443.99 -489.724)"><g transform="translate(0 0)"><path d="M2286.8,627.363a8.057,8.057,0,0,1,2.834-.858l-8.9-26.172a1.512,1.512,0,0,0-1.431-1.025h-11.135a1.512,1.512,0,0,0-1.511,1.512v41.334a1.512,1.512,0,0,0,1.511,1.512h6.109a1.512,1.512,0,0,0,1.512-1.512V612.541h.124l6.94,19.867A7.7,7.7,0,0,1,2286.8,627.363Z" transform="translate(-2266.658 -599.308)" fill="#fff"/><path d="M2344.207,599.308h-19.915a1.513,1.513,0,0,0-1.439,1.049l-8.437,26.221a7.731,7.731,0,0,1,5.419,3.72,8.588,8.588,0,0,1,.864,2.073l6.965-20.14h.086v29.923a1.512,1.512,0,0,0,1.512,1.512h14.946c13.543,0,17.419-9.568,17.419-22.428C2361.626,606.515,2355.7,599.308,2344.207,599.308Zm-.67,36h-6.646V607.669h4.927c9.58,0,10.667,5.65,10.667,14.493C2352.484,631.865,2349.126,635.3,2343.537,635.3Z" transform="translate(-2289.146 -599.308)" fill="#fff"/></g><g transform="translate(17.45 28.609)"><path d="M2306.511,670.575a.7.7,0,0,1-.976-.007c-1.989-1.952-5.9-6.609-5.9-10.941a6.191,6.191,0,0,1,3.374-5.505,6.511,6.511,0,0,1,8.6,2.364,6.229,6.229,0,0,1,.905,3.083C2312.512,664.247,2308.513,668.666,2306.511,670.575Z" transform="translate(-2299.636 -653.377)" fill="#fff"/><path d="M2311.729,664.309a3.316,3.316,0,1,1,.389-2.232,3.318,3.318,0,0,1-.389,2.232" transform="translate(-2302.416 -656.187)" fill="#0e7473"/></g></g></g></svg>